<svg version="1.1" class="svg-top" xmlns="http://www.w3.org/2000/svg" xmlns:xlink="http://www.w3.org/1999/xlink" x="0px" y="0px"
	 viewBox="0 0 2880 600" style="enable-background:new 0 0 2880 600;" xml:space="preserve">
	<path d="M0,0c0,13.5,0,27,0,40.5c0,3.7,0,7.4,0,11c7.7,0,15.3-0.1,23-0.9c3.7-0.4,7.4-0.9,11.1-1.2c3.7-0.3,7.4-0.5,11-0.8
		c7.8-0.6,15.6-0.2,23.5,0.3c7.9,0.5,15.8,1,23.7,1.4c15.7,0.6,31.4,0.6,47.1-0.5c7.7-0.6,15.4-1.4,23.1-2.4
		c3.5-0.5,6.9-1.3,10.4-1.6c3.8-0.3,7.7-0.2,11.5-0.3c7.9-0.3,15.7-0.4,23.6-0.6c3.8-0.1,7.6-0.2,11.4-0.2c1.9,0,3.8-0.1,5.6-0.1
		c1.7,0,3.5-0.2,5.3,0c1.7,0.2,3.5,0.7,5.2,1c1.8,0.3,3.6,0.6,5.4,0.8c3.7,0.5,7.5,0.7,11.2,0.8c1.9,0,3.8,0.1,5.7,0
		c1.8-0.1,3.6-0.4,5.4-0.7c3.7-0.5,7.4-0.7,11.2-1c7.3-0.5,14.8-0.7,22-2.4c1.6-0.4,3.1-1.1,4.8-1.3c1.6-0.2,3.3-0.1,4.9,0
		c4,0.2,7.9,0.3,11.8,0.8c1.6,0.2,3.2,0.6,4.8,0.7c1.8,0.1,3.5,0,5.3,0c3.8-0.1,7.6-0.1,11.4-0.3c1.9-0.1,3.8-0.3,5.6-0.5
		c1.8-0.2,3.6-0.6,5.5-0.9c1.8-0.2,3.5-0.1,5.3-0.1c1.9,0,3.8-0.1,5.6-0.4c3.5-0.5,6.9-1.4,10.3-2.7c1.6-0.6,2.9-1,4.7-1
		c1.8,0,3.5,0.2,5.3,0.4c3.6,0.4,7.3,0.7,10.9,1.3c3.6,0.5,7.3,1.3,10.9,2c7.5,1.4,15.2,2.5,22.8,2c7.5-0.5,14.8-1.5,22.3-1.6
		c7.8-0.1,15.7,0,23.5,0.1c7.9,0.1,15.8-0.1,23.7-0.1c3.6,0,7.2,0.1,10.7,0.7c1.8,0.3,3.6,0.6,5.4,0.8c1.9,0.2,3.7-0.2,5.6-0.3
		c3.5-0.3,7.1,0.3,10.7,0.2c3.5-0.2,6.7-1.5,10.2-1.5c3.7,0,7.3,0.8,11,0.6c3.7-0.1,7.3-0.8,10.9-1.3c1.8-0.3,3.5-0.6,5.3-0.6
		c1.8,0,3.6,0,5.4,0c3.9,0,7.7,0.1,11.6,0.1c3.7,0,7.5-0.2,11.2,0.4c3.7,0.6,7.5,0.7,11.3,0.8c7.7,0.2,15.3,0.2,22.9,0.1
		c4-0.1,7.9,0,11.9-0.2c1.9-0.1,3.8-0.2,5.8,0c1.9,0.2,3.8,0.5,5.8,0.8c7.7,1,15.5,1,23.2,0.7c7.7-0.4,15.4-1.3,23-1.7
		c3.9-0.2,7.9-0.2,11.8,0.1c1.8,0.2,3.7,0.4,5.6,0.3c1.7-0.1,3.5-0.4,5.2-0.6c7.5-0.7,14.9-1.1,22.5-1.2c3.6-0.1,7.1-0.3,10.7-0.9
		c3.3-0.6,6.7-0.5,10.1-0.6c7.7-0.1,15.5-0.1,23.2-0.1c3.8,0,7.7,0.2,11.5,0.1c3.4-0.1,7-0.5,10.3,0.7c1.5,0.6,3,1,4.6,1
		c1.7,0,3.5-0.2,5.2-0.3c3.3-0.1,6.6-0.3,10-0.5c2.8-0.2,5.6-0.5,8.3-1c2-0.4,4.6-0.9,6-2.5c0.3-0.3,0.4-0.7,0.6-1
		c0.4-0.5,1-0.6,1.5-0.8c1.9-0.5,3.8-1.1,5.7-1.6c3.5-0.9,7-1.8,10.6-2.4c7.4-1.3,14.9-1.7,22.4-1.5c3.8,0.1,7.7,0.1,11.5,0.1
		c3.6,0,7.3-0.4,10.8,0.3c7.3,1.5,14.4,2.8,21.9,2.8c7.5,0,15-1,22.3-2.8c3.7-0.9,7.5-1.2,11.3-1.6c3.8-0.4,7.6-0.7,11.3-1
		c4-0.3,7.9-0.7,11.9-0.8c3.7-0.1,7.3,0.1,11,0.2c3.8,0.1,7.6,0.1,11.4-0.1c1.9-0.1,3.7-0.4,5.6-0.8c1.9-0.4,3.7-0.5,5.6-0.6
		c3.7-0.3,7.5-0.7,11.1-1.5c3.4-0.7,6.7-2.2,10.1-2.3c7.8-0.2,15.7-0.6,23.5-0.3c3.8,0.2,7.7,0.4,11.5,0.8c3.5,0.3,6.9,1,10.4,1.4
		c7.7,0.8,15.4,0.6,23.1,0.3c3.9-0.2,7.8-0.4,11.7-0.7c2-0.1,3.9-0.3,5.9-0.4c1.6-0.1,3.3-0.2,4.8-0.7c1-0.4,1.5-0.5,2.7-0.4
		c1.9,0.2,3.8,0.3,5.8,0.3c3.7,0,7.4-0.2,11-1.2c1.6-0.4,3.1-0.7,4.8-0.6c1.7,0.1,3.3,0.2,5,0.3c4,0.2,7.9,0.4,11.9,0.7
		c1.9,0.1,3.8,0.3,5.7,0.4c0.8,0.1,1.7,0.1,2.5,0.1c1-0.1,2-0.4,3-0.4c1.8-0.1,3.6,0.3,5.4,0.5c1.7,0.2,3.3,0.3,5,0.4
		c0.6,0,1.4,0,2,0.2c0.5,0.2,0.9,0.6,1.4,0.8c1.5,0.6,3.1,0.8,4.6,0.8c3.8,0,7.5,0.6,11.2,1.1c7.6,1,15.1,1.8,22.8,1.8
		c7.8,0,15.4-1.2,23.1-1.9c7.8-0.7,15.8-0.5,23.7-0.3c15.8,0.4,31.6,1.4,47.4,0.1c3.1-0.3,6.2-0.9,9.4-0.4c3.8,0.6,7.6,0.8,11.5,0.6
		c3.8-0.2,7.6-0.6,11.4-1c3.8-0.4,7.6-0.3,11.4-0.2c1.8,0,3.6,0.1,5.3,0.4c1.7,0.3,3.4,0.6,5.1,0.8c3.7,0.4,7.3,0,11-0.2
		c3.7-0.1,7.4,0.1,11.1,0.1c1.9,0,3.8,0.1,5.7,0.1c1.6,0.1,3.2,0.4,4.8,0.4c1.7,0.1,3.2-0.4,4.8-0.9c1.5-0.5,2.9-0.2,4.4,0
		c1.8,0.2,3.7,0.5,5.5,0.5c0.9,0,1.7,0,2.5,0.2c0.9,0.2,1.8,0.4,2.7,0.4c3.7,0.3,7.4-0.1,11.1,0.1c1.7,0.1,3.4,0.4,5.1,0.6
		c1.7,0.2,3.4,0.2,5.1,0.2c1.8,0,3.5,0.1,5.3,0c1.6-0.1,3.1-0.7,4.6-0.9c3.6-0.6,7.3-0.7,10.9-0.8c3.9-0.1,7.7-0.1,11.6-0.3
		c3.9-0.2,7.8-0.3,11.7-0.4c7.7-0.3,15.3-0.2,23-0.2c3.3,0,6.8-0.4,10,0.5c3.3,0.8,6.8,1.1,10.2,1.1c1.2,0,2.6-0.3,3.8,0
		c0.7,0.1,0.6,0.5,0.8,1.1c0.2,0.6,0.5,1.1,1.1,1.5c2.2,1.8,5.4,2.3,8.2,2.7c1.7,0.2,3.4,0.4,5.1,0.4c1.5,0,3,0.1,4.5,0.5
		c3.1,0.9,6.1,2.2,9.1,3.2c1.6,0.5,3.2,0.5,4.9,0.4c1.9-0.1,3.9-0.2,5.8-0.3c3.6-0.2,7.3-0.7,10.8-0.1c1.9,0.3,3.7,0.6,5.6,0.6
		c1.9,0,3.7,0.1,5.5,0.4c3.7,0.6,7.5,0.9,11.3,1c3.9,0.1,7.9,0,11.8-0.1c3.9-0.1,7.8-0.3,11.6,0.5c7.6,1.5,15.5,1.6,23.2,1.3
		c3.8-0.2,7.5-0.7,11.3-0.6c3.7,0.1,7.4-0.4,11-1c7.4-1.2,14.7-1.7,22.1-2.3c3.8-0.3,7.9-0.8,11.8-0.3c3.7,0.5,7.3,1.5,10.9,2.4
		c7.1,1.8,14,3.3,21.4,3.1c1.7,0,3.4-0.1,5.1-0.3c0.4,0,0.9,0,1.3-0.3c0.2-0.2,0.3-0.5,0.5-0.7c0.5-0.6,1.6-0.5,2.3-0.5
		c1.8-0.2,3.7-0.3,5.5-0.5c3.4-0.3,7-0.4,10.3-1.1c1.4-0.3,2.9-0.6,4.3-1.1c1.5-0.5,0.5-1.1-0.5-1.5c1.3,0.1,1.2-0.5,1.2-1.4
		c0.1,0,0.2,0,0.3,0c-0.8,0.5-0.5,0.9-0.4,1.6c0.1,0.4,0,0.8,0.4,1.1c0.4,0.3,1.4,0.1,1.9,0.2c1.1,0,2.1,0,3.2,0
		c2.3,0,4.6,0.1,6.9,0.3c2.1,0.3,4.1,0.8,6.1,1.3c4,1,8.2,1.4,12.2,2.2c2,0.4,3.8,0.8,5.9,0.4c2.2-0.4,4.3-0.8,6.5-1.3
		c4.2-0.8,8.2-1.9,12.5-1.8c1.7,0,3.4,0.1,5.1,0.1c0.7,0,1.5,0.1,2.1-0.1c0.5-0.2,0.8-0.6,1.3-1c1.5-1.1,3.5-1.3,5.3-1.5
		c1.9-0.2,3.8-0.3,5.7-0.2c3.8,0,7.7,0.3,11.5,0.4c4,0.1,8.1-0.9,12,0c2,0.4,3.9,0.8,6,1c2.2,0.2,4.4,0.3,6.5,0.4
		c8.6,0.6,17.2,2.4,25.8,2.7c4.4,0.2,8.8,0.1,13.1-0.1c3.6-0.2,7.4-0.5,11-0.1c4,0.4,7.8,1.2,11.8,1.2c4.7,0.1,9.3-0.5,14-0.7
		c2.2-0.1,4.5-0.1,6.7-0.1c2.2,0,4.4-0.3,6.7-0.4c2.2-0.1,4.5,0,6.7-0.1c2.1-0.1,4.2-0.4,6.3-0.7c2.2-0.3,4.5-0.2,6.7-0.3
		c2.4-0.1,4.7-0.1,7.1-0.2c2.3-0.1,4.6-0.1,6.9-0.1c1.1,0,2.2-0.1,3.2-0.5c0.9-0.4,1.7-0.7,2.7-0.8c2.1-0.2,4.3-0.3,6.4-0.3
		c-0.2,0.6,0.5,0.5,0.9,0.5c0.6,0,1.2,0,1.8,0.1c1.4,0.1,2.8,0.3,4.3,0.4c3,0.3,6,0.9,9,1.2c2.9,0.3,5.9,0.6,8.9,0.7
		c1.5,0.1,3.1,0.1,4.6,0.1c0.2,0,0.7,0.1,0.8-0.1c0.1-0.1,0-0.3,0-0.4c0-0.1,0-1,0.3-1c-2.3,1.1,1.3,2.3,2.2,2.6
		c2.8,0.9,5.7,1.2,8.5,1.5c4.2,0.4,8.5,0.5,12.8,1.1c4.1,0.6,8.1,1.4,12.2,1.6c4.3,0.2,8.6,0,12.9,0.2c3.6,0.1,7.3,1.1,10.9,0.6
		c0.7-0.1,1.5-0.4,2.2-0.3c0.8,0,1.6,0.3,2.4,0.4c1.9,0.3,3.8,0.6,5.8,0.8c3.8,0.3,7.7,0.4,11.5,0.2c1.4-0.1,3.1-0.3,4.5,0
		c1.2,0.3,1.6,1.8,2.7,2.4c1.4,0.9,3.3,1.3,5,1.5c2.2,0.3,4.5,0.3,6.7,0.3c4.3,0,8.6-0.1,13-0.2c4.3,0,8.5-0.1,12.7-0.9
		c3.9-0.8,8.1,0,12,0.2c1.9,0.1,3.8,0.1,5.7,0.4c2,0.4,4,1,6,1.4c4,0.8,8.3,0.7,12.4,0.9c4.3,0.1,8.7,0.1,13,0.1
		c8.7,0,17.4,0.1,26,0.7c8.5,0.6,17.1,1.1,25.6,1.7c0.7,0,1.6,0.3,2.2,0.2c0.7-0.1,0.9-0.6,1.6-0.2c-0.3,0.1-1.4,0-1.5,0.4
		c-0.2,0.5,1.1,1.8,1.4,2.1c1.5,1.4,3.5,2.1,5.5,2.5c2.2,0.4,4.4,0.7,6.6,0.7c1,0,2.1,0,3.1,0c1.1,0.1,2,0.4,3,0.8
		c1.8,0.7,3.7,1.6,5.6,1.9c1.9,0.3,3.9,0.1,5.9-0.3c1.9-0.3,3.8-1.1,5.7-1.1c2,0,4,0.1,6,0c9.8-0.3,19.6-1.2,29.4-2.3
		c4.6-0.5,9.3-0.9,13.9-1.8c4.4-0.9,8.9-1.5,13.4-1.5c2.2,0,4.4,0.1,6.6,0.4c2,0.3,3.9,1,5.9,1c4.5,0,8.9-0.1,13.4,0
		c9.4,0.2,18.9,0.8,28.1,2.9c4.7,1.1,9.3,2.1,14,2.7c4.8,0.6,9.7,1,14.5,1.2c4.9,0.1,9.8,0,14.6,0c4.6,0.1,9.4,0.6,13.9-0.9
		c1.5-0.5,2.7-1.5,4.3-1.5c2.4-0.1,4.8-0.1,7.2-0.1c4.6,0.1,9.1-0.9,13.7-1c2.4,0,4.6,0.3,7,0.5c2.2,0.2,4.5,0.2,6.7,0.2
		c5,0,9.9,0,14.9,0.1c2.5,0,5.1,0,7.6,0c-0.2,0.1-0.4,0.3-0.6,0.4c6.7,0.1,13.3,0.6,20,0.6c3.2,0,6.5-0.1,9.6-0.6
		c2.9-0.4,5.7-1.2,8.7-1.3c3-0.1,5.9-0.1,8.9-0.4c1.3-0.1,2.5-0.4,3.7-0.8c1.2-0.4,2.4-0.3,3.7-0.2c6.5,0.2,12.9-0.9,19.3-2.2
		c6-1.2,12.2-1.7,18.3-2.1c3.2-0.2,6.5-0.1,9.7,0c3.3,0.1,6.7,0.1,10,0.1c13.2,0,26.5,0.1,39.7,0.6c13.3,0.5,26.7,1.1,40,1.5
		c6.6,0.2,13.2,0.4,19.8,0.5c3.2,0.1,6.4,0.1,9.6,0.1c2.8,0.1,5.5-0.1,8.3,0.1c1.3,0.1,2.6,0.5,3.9,0.8c1.5,0.4,2.9,0.6,4.4,0.8
		c3.1,0.5,6.1,0.9,9.2,1c6.3,0.3,12.7,0.1,19,0.2c1.3,0,2.7,0,4.1,0.1c1.5,0.1,2.9,0.6,4.4,1c3,0.8,6.1,1.1,9.2,1.2
		c3.2,0.2,6.4,0.4,9.6,0.9c3.2,0.5,6.4,0.9,9.6,1c2.9,0.1,5.9,0.1,8.8,0.2c1.7,0,3.5,0.3,5.2,0c0.9-0.1,0.6-0.8,0.6-1.6
		c-0.1-1.5,0-3,0-4.5c0-3.3,0-6.7,0-10c0-13.3,0-26.7,0-40c0-1.6,0-3.2,0-4.8c0-0.5,0.3-1.9-0.1-2.1c-0.3-0.2-0.9,0-1.3,0
		c-0.5,0-1.1,0-1.6,0c-1.7,0-3.4,0-5.1,0c-6.5,0-13,0-19.5,0c-13.3,0-26.7,0-40,0c-13.4,0-26.7,0-40.1,0c-13.3,0-26.5,0-39.8,0
		c-13.3,0-26.6,0-40,0c-13.3,0-26.7,0-40,0c-13.4,0-26.8,0-40.2,0c-13.4,0-26.7,0-40.1,0c-13.4,0-26.9,0-40.3,0
		c-13.5,0-26.9,0-40.4,0c-13.4,0-26.8,0-40.2,0c-13.5,0-26.9,0-40.4,0c-13.4,0-26.8,0-40.2,0c-13.5,0-26.9,0-40.4,0
		c-13.5,0-26.9,0-40.4,0c-13.5,0-27,0-40.6,0c-13.4,0-26.8,0-40.2,0c-13.5,0-26.9,0-40.4,0c-13.4,0-26.8,0-40.1,0
		c-13.5,0-27,0-40.5,0c-13.4,0-26.9,0-40.3,0c-13.5,0-26.9,0-40.4,0c-13.4,0-26.7,0-40.1,0c-13.4,0-26.8,0-40.3,0
		c-13.4,0-26.8,0-40.2,0c-13.5,0-27,0-40.5,0c-13.5,0-27,0-40.5,0c-13.4,0-26.8,0-40.2,0c-13.4,0-26.9,0-40.3,0
		c-13.4,0-26.8,0-40.2,0c-13.4,0-26.8,0-40.2,0c-13.4,0-26.7,0-40.1,0c-13.5,0-27,0-40.5,0c-13.4,0-26.9,0-40.3,0
		c-13.5,0-27,0-40.5,0c-13.4,0-26.8,0-40.2,0c-13.5,0-26.9,0-40.4,0c-13.4,0-26.8,0-40.2,0c-13.5,0-26.9,0-40.4,0
		c-13.4,0-26.9,0-40.3,0c-13.5,0-27,0-40.5,0c-13.4,0-26.7,0-40.1,0c-13.4,0-26.9,0-40.3,0c-13.4,0-26.7,0-40.1,0
		c-13.4,0-26.8,0-40.3,0c-13.5,0-26.9,0-40.4,0c-13.4,0-26.8,0-40.2,0c-13.4,0-26.9,0-40.3,0c-13.4,0-26.8,0-40.1,0
		c-13.5,0-26.9,0-40.4,0c-13.4,0-26.8,0-40.2,0c-13.5,0-27,0-40.4,0c-13.3,0-26.7,0-40,0c-13.4,0-26.8,0-40.2,0
		c-13.4,0-26.8,0-40.2,0c-13.4,0-26.9,0-40.3,0c-13.4,0-26.8,0-40.1,0c-13.4,0-26.8,0-40.2,0c-13.3,0-26.7,0-40,0
		c-13.5,0-26.9,0-40.4,0c-13.4,0-26.7,0-40.1,0c-13.5,0-27,0-40.4,0c-13.5,0-26.9,0-40.4,0c-13.5,0-27,0-40.6,0c-13.5,0-27,0-40.5,0
		c-13.4,0-26.8,0-40.3,0c-13.5,0-26.9,0-40.4,0c-12.9,0-25.8,0.1-38.7,0.1c-13.5,0-26.9,0-40.4,0c-13.4,0-26.8,0-40.2,0
		C62.5,0,49.2,0,35.9,0C23.9,0,12,0,0,0z"/>
	<path id="Footer" d="M2880.5,600c0-12.6,0-25.4,0-38c0-2.4,0-4.6,0-7c0-1.2-0.3-0.9-3.2-1.2c-5.8-0.4-11.8-0.7-17-2.1
		c-3.5-0.9-6.3-2.4-10.1-3.3c-5.2-1-10.9-1.5-16.7-1.9c-5.8-0.4-11.8-0.6-17.6-1.3c-2.9-0.3-4.3-0.4-6.6,0.6
		c-1.2,0.6,0.6,0.3-1.4,0.4c-0.6,0-1.4,0-2,0c-2,0-4,0.1-5.8,0.3c-3.5,0.3-7.2,0.9-10.7,1.5c-1.7,0.3-3.2,0.6-4.9,0.9
		c-0.9,0.1-1.4,0.1-1.4,0.6c-0.3,0.4,0.6,1.3,0.9,1.8c0.6,1.3,0.3,1.9-2,2.8c-1.7,0.6-4,1-6,1.6c-0.9,0.3-1.7,0.6-2.6,0.9
		c-0.6,0.3-0.9,1-1.2,1.2c-0.3,0.1-1.2,0.1-1.7,0.1c-1.2,0.1-2,0.4-3.2,0.6c-1.7,0.4-3.2,0.7-4.9,1.2c-3.2,0.7-6.6,1.5-9.8,2.4
		c-1.4,0.4-6.3,1.6-6.3,2.5c-6.9-0.9-14.4-0.9-21.6-0.4c-3.2,0.1-6.6,0.4-9.8,0.9c-1.4,0.1-3.7,0.1-5.2,0.6c-1.7,0.6-0.3,0.7-0.9,1.5
		c-0.3-0.1-1.2-0.6-1.4-0.7c0-0.1,0.6-0.6,0.3-0.9c-0.3-0.6-1.4-0.7-2.6-0.9c-1.7-0.1-3.5-0.1-4.9,0c-0.9,0.1-0.6,0.3-1.7,0.3
		c-1.4,0-2.9-0.4-4-0.6c-2.3-0.3-4.6-0.6-6.6-0.9c-2.6-0.3-4.6-0.9-7.2-1.6c-2-0.6-4.3-1.3-6.6-1.8c-2.3-0.4-5.2-0.1-7.8,0
		c-5.2,0.1-9.8-0.3-14.7-0.9c-4.3-0.4-9.8,0.4-14.4,0.7c-3.7,0.3-8.1,0.3-11.5,1.2c-1.2,0.3-2.3,0.7-3.5,1.2
		c-0.3,0.1-0.9,0.6-1.4,0.7c-0.9,0.3-2.9,0-4,0.1c-10.1,0.1-20.4,0.1-30.5,0.1c-5.2,0-10.4,0-15.3,0c-2.6,0-4.9,0-7.5,0
		c-2.6,0-5.2,0.1-7.5-0.3c-8.4-1.5-17-2.2-25.9-2.1c-4.6,0-8.9,0.6-13.5,0.9c-4.6,0.1-9.2,0.1-13.5,0c-20.4-0.6-39.7-4-60.2-4.6
		l0.3,0.1c-1.2-0.6-6.3-0.1-7.8-0.1c-3.5,0.3-7.2,0.4-10.7,0.7c-7.2,0.4-14.1,0.9-21.3,1.5c-2.9,0.1-6,0.3-8.9,0.7
		c-2.3,0.4-4.3,0.9-6.3,1.3c-4.9,1-9.5,1.8-14.7,1.6c-0.6-1.9-12.1-1.5-15-2.1c-1.2-0.3-2-0.7-3.5-0.9c-2.6-0.3-4.6,0.3-7.2,0.7
		c-4.3,0.9-9.2,0.9-13.8,0.6c-4.3-0.3-8.9-1-13.2-1.2s-8.6,0.1-13,0.1c-4,0.1-8.4,0.1-12.4-0.3c-2-0.1-4-0.4-5.8-0.9
		c-0.9-0.1-1.4-0.6-2.3-0.7c-1.4-0.1-3.2,0-4.6,0c-2.6,0-6.3-0.7-7.8,0.7c0,0.1-0.3,0.6-0.6,0.7c-0.6,0.1-2.6,0-3.2,0
		c-2.9,0-5.5,0.1-8.4,0c-9.2-0.3-19,0.4-28.2-0.7c-0.9-0.1-2-0.3-2.9-0.4c-1.4-0.1-2.3,0-3.7,0.1c-2.6,0.3-4.9,0.6-7.5,0.7
		c-4.9,0.6-10.1,0.3-15.3,0c-9.5-0.4-19-1.3-28.2-2.2c-9.2-0.7-17.9-0.6-26.8,0.4c-4.3,0.4-8.6,1-13,1.5c-2,0.1-4.3,0.6-6,0.4
		c-2.3-0.1-4.6-0.7-6.9-0.9c-4.9-0.4-9.5-0.7-14.4-0.7c-1.2,0-2,0-3.2,0c-0.6,0-3.5-0.1-3.7,0c-0.9,0.4,0.3,1.2-0.9,1.5
		c-0.9,0.3-2.9,0.1-3.7,0.1c-1.2,0-2.6,0.1-3.7,0.1c-1.4,0-1.2,0-2,0.4c-0.9,0.4-1.2,0.9-2.3,1.3c-2.3,0.7-5.2,1.2-7.5,1.8
		c-2.6,0.4-5.5,0.9-7.5,1.9c-0.3,0.1-0.6,0.4-0.9,0.6c-0.9,0.3-2.6,0.1-3.5,0.1c-2.6,0-5.5,0-8.1,0c-5.2,0-10.7,0.1-16.1-0.1
		c-2.3-0.1-4.3-0.9-6.6-1.3c-2.3-0.4-4.6-0.7-6.9-1c-8.9-0.9-17.9-0.1-26.5,0.9c-9.2,1-17.6,1.8-27.1,1.9
		c-10.1,0.1-20.4-0.1-30.5-0.3c-2.3,0-4.9,0.1-7.2-0.1c-2.3-0.3-4.3-0.9-6.6-1.2c-4.6-0.6-9.2-0.7-14.1-0.7c-4.6,0-9.5,0.1-14.1,0.4
		c-2.3,0.1-4.6,0-6.9,0.4c-2.6,0.4-5.2,1.2-7.5,1.6c-2.3,0.4-4.3,0.9-6.6,1c-2.6,0.1-5.2,0.3-7.8,0.3c-4.9,0.1-10.1,0-14.7-0.4
		c-4.9-0.4-9.8-0.4-14.4,0.1c0-2.4-8.4-2.8-11.8-3.1c-4.6-0.3-9.2,0-13.5,0.7c-4.9,0.7-9.5,1.8-14.4,2.2c-4.9,0.4-9.8,0.4-14.7,0.4
		c-9.8-0.1-19.3-1-29.1-1.5c-2.3-0.1-4.6-0.1-6.9-0.3c-1.2,0-2.6,0-3.7,0c-1.2,0-3.2,0.3-4.3,0c-0.9-0.1-1.7-0.7-2.6-0.9
		c-0.9-0.3-2-0.6-2.9-0.9c-2-0.4-4-0.7-6-0.9c-9.5-0.7-19,1.2-27.9,2.4c0-1.5-2.6-2.4-4.9-3.1c-3.5-0.9-6.9-1.5-10.4-2.5
		c-0.6-0.1-2-0.7-2.6-0.7c-0.9-0.1-2.3,0-3.2,0.1c-2.3,0-4.3,0.1-6.6,0.1c-2.3,0-4.3,0.1-6.6,0.3c-2,0-4.3-0.3-6.3-0.4
		c-4-0.4-8.6-0.6-12.4-1.5c-3.5-0.7-6.6-1.2-10.4-1.3c-3.7-0.1-7.2,0.1-10.9,0.1c-2,0-3.7,0.1-5.8,0.1c-1.4,0-1.2,0-1.4,0.6
		c0,0.3,0.3,0.9-0.6,0.7c2.6-1.5-1.2-1.5-3.5-1.8c-2.3-0.1-4.6-0.4-6.9-0.7c-4.6-0.4-8.9-1.2-13.2-2.2c-1.4-0.4-3.7-0.9-4.9-1.6
		c-0.3-0.3-0.3-0.6-0.6-0.9c0-0.4-0.6-0.6-1.4-0.4c-1.2-0.1-3.2,0-4.3,0c-5.5,0-10.9,0-16.7,0c0.3-0.1,0.3-0.3,0.6-0.4
		c-1.4,0.1-4,0-5.2,0.3c-1.2,0.3-2,1.2-2.9,1.8c-1.2,0.6-2.3,1.3-3.5,1.9c-0.9,0.4-0.9,0.6-2,0.6c-0.9,0.1-2,0-3.2,0
		c-3.2-0.1-6-0.3-9.2-0.1c-1.4,0-2.6,0-4,0.1c-1.4,0.1-3.5,0.6-4.9,0.6c-1.7,0-4-0.4-5.5-0.6c-1.4-0.1-2.9-0.3-4.6-0.4
		c-3.7-0.4-7.5-0.9-11.2-1.2c-6.9-0.7-13.8-1.5-20.7-2.4c-0.9-0.1-2-0.1-2.9-0.3c-1.2-0.3-0.6,0-1.2-0.4s-0.6-0.9-1.2-1.3
		c-1.4-1-4-1.6-6-2.2c-2.9-0.7-5.2-0.9-8.4-1c-3.5-0.1-6.9,0.4-10.4,0.7c-6,0.6-13,1.9-19.3,1.3c-2.6-0.3-4.9-0.6-7.5-0.7
		c-1.4,0-2.6,0-4,0.3c-1.7,0.3-3.5,0.1-5.5,0.1c-4.9,0-10.1,0.4-14.7,1.6c-2,0.4-3.7,1.5-5.8,1.5c-2.6,0.1-5.5-0.1-8.1,0
		c-6.6,0.6-8.9,2.8-12.7,5.2c-1.4,0.9-2.6,0.9-4.6,1c-2.6,0.1-5.5,0.3-8.1,0.4c-5.2,0.3-10.7,0.6-15.8,1c-4.6,0.4-9.5,1.2-13.5,2.4
		c-0.9,0.3-1.4,0.6-2.3,0.9c-0.6,0.3-1.4,0.9-2.3,1c-1.2,0.1-3.2-0.1-4.3-0.3c-1.7-0.1-3.5-0.3-5.2-0.4c-6.3-0.6-13-0.7-19.3,0
		c-3.2,0.3-6,0.9-8.9,1.6c-2.6,0.6-5.8,1.9-8.6,2.2c-2.9,0.4-7.2,0.1-10.4,0.1c-3.7,0-7.5,0.1-11.2,0.1c-3.2,0-6.3,0.1-9.5,0.1
		s-5.5-0.3-8.4-0.7c-2.6-0.4-4.9-0.7-7.8-0.7c-1.4,0-2.9,0.1-4.3,0.1c-1.7,0-3.7-0.4-5.5-0.6c-3.2-0.3-6.3-0.7-9.5-1
		c-3.2-0.3-6.3-0.3-9.8-0.3c-5.5,0-10.9,0.4-15.8,1.6c-2,0.4-4.3,1.3-6.3,1.3c-3.2,0-6.6-0.4-9.8-0.7c-6-0.4-11.5-0.6-17,0.9
		c-4.9,1.2-9.5,1.3-14.7,0.4c-4.6-0.9-8.9-1.5-13.8-1.8c-0.9,0-3.2,0.1-3.7,0.1c-0.6-0.1-1.2-0.7-1.7-1c-1.7-0.9-4.3-1.3-6.6-1.6
		c-5.5-0.6-11.5-0.3-16.7-0.1c-1.2,0-2.6,0.1-3.7,0.3c-1.2,0.1-2,0.7-2.9,0.9c-2,0.3-5.8-1.2-7.5-1.6c-4.3-1-9.2-0.4-13.8-0.4
		c-2,0-4,0-6-0.3c-1.4-0.3-1.7-0.4-3.2-0.4c-1.7,0-3.2,0.1-4.9,0.3c-6.3,0.1-12.7-0.3-18.7-0.3c-2.9,0-5.8,0-8.6,0.3s-5.8,0.9-8.6,1
		c-3.2,0.1-6.3,0.3-9.2,0.6c-3.2,0.3-6,0.7-9.2,0.6c-4.3-0.1-8.4-1.2-12.1-2.4c-4.9-1.6-10.1-1.9-15.8-2.1
		c-5.8-0.1-12.1-0.9-17.9-0.1c-2.6,0.3-4.6,1.2-7.2,0.9c-2.3-0.3-4.9-0.3-7.2,0.3c-2,0.4-3.5,1.2-5.5,1.6c-2.6,0.7-6,0.7-8.9,1
		c-5.2,0.4-10.7,1-15,2.5l0.3-0.1c-1.7-0.1-3.7-0.3-5.5-0.6c-1.7-0.1-3.7-0.6-5.5-0.6c-3.5,0.1-6.9,1.5-10.4,1.8
		c-2.9,0.3-15-0.6-13.8,2.7c-2.6-0.3-4.6,0.3-7.2,0.3c-0.6,0-1.4-0.1-2,0c-2,0.1-0.6-0.1-1.2,0.3c-0.3,0.1-0.6,0.6-0.9,0.7
		c-0.9,0.4-1.2,0.6-2.3,0.7c-5.2,1-10.7,1.3-16.1,1.2c-5.8-0.1-11.8-0.6-17.6-0.9c-1.4-0.1-2-0.3-3.5-0.6c-1.2-0.3-2.3-0.1-3.7-0.1
		c-2.9,0-5.8,0.1-8.6-0.1c-2.6-0.1-5.2-0.9-7.8-0.7c-3.2,0.1-6.3,0.3-9.5,0.3c-2.9,0.1-6,0.1-8.9,0.3c-3.2,0.1-6-0.3-8.9-0.6
		c-2.6-0.3-5.8-0.4-8.4-0.9c-2.3-0.4-4.3-1-6.6-1.3c-2.3-0.1-4.9-0.1-7.2-0.1c-1.2,0-2.6,0.1-3.7,0c-1.7,0-3.2-0.4-4.6-0.6
		c-5.5-0.9-11.5-1.3-17.3-1.2c-2.9,0.1-5.5,0.3-8.4,0.7c-3.2,0.4-5.8,1.2-8.9,1c-9.8-0.3-19-2.2-28.5-2.8c-5.2-0.3-10.1-0.1-15,0.6
		c-2.6,0.4-4.6,1-6.9,1.5c-2.3,0.4-4.9,0.6-7.5,0.7c-2.3,0-5.8,0.3-7.8,0c-1.2-0.1-2.3-0.9-3.2-1.3c-1.2-0.4-2.6-0.7-3.7-0.9
		c-5.2-0.9-10.4-1.2-15.8-1.5c-2.6-0.1-5.5-0.3-8.1-0.4c-3.2-0.1-6.3,0.6-9.5,0.9c-5.5,0.4-11.2,0.3-17,0s-12.1-0.6-17.9-1.2
		c-2.9-0.3-5.8-0.9-8.4-1.3c-1.4-0.1-2.9-0.4-4-0.7c-1.4-0.4-2.6-1-3.7-1.5c-1.2-0.4-1.7-0.7-2.9-0.7c-1.2,0-2.3,0.1-3.5,0.3
		c-2.9,0.3-5.8,0.4-8.9,0.7c-4,0.3-8.1,0-12.1-0.1c-0.6,0-1.7,0-2.3-0.1c-0.6-0.1-1.4-0.9-1.7-1c-0.9-0.3-1.7-0.6-2.6-0.9
		c-3.7-0.7-7.8-0.3-11.5,0.1c-3.7,0.4-7.5,1-11.2,0.9c-5.2-0.3-10.9,0.1-16.1,0.1c-5.5,0.1-10.9,0.3-16.4,0.7
		c-5.2,0.4-10.1,1.3-15.6,1.3c-4,0-7.8-0.4-11.5-1.2c-2.9-0.6-6.3-1.2-9.2-2.1c-2.3-0.7-4.6-2.2-7.8-2.2c-1.4,0-2.9,0.3-4,0.9
		c-0.9,0.4-1.7,0.9-2.6,1.3c-1.2,0.6-2.9,0.7-4.3,1c-5.8,1.2-11.5,2.4-17.3,3.4c-2.9,0.4-5.5,1-8.4,1.3c-3.2,0.3-6.3,0.4-9.5,0.6
		c-6,0.4-12.1,0.9-18.4,1.3c-1.2,0.1-3.2,0.4-4.3,0.3c-0.9-0.1-2-0.4-3.2-0.6c-2.3-0.3-4.9-0.1-7.5-0.1c-2.3,0-4.6,0-6.9-0.1
		c-2.6-0.3-4.9-0.7-7.8-0.6c-4.9,0.3-10.1,0-15,0.4c-2.3,0.1-4.3,0.4-6.3,1.2c-0.9,0.3-2,0.6-1.7,1.2c0,0.7,1.2,0.6,2,0.7
		c-2,0.4-3.7,0.9-5.8,1.3c0-0.1,0.6-0.1,0.6-0.3c-2.9-0.9-6.3-0.9-9.8-0.9c-4,0-7.5-0.1-11.5-0.3c-1.2,0-1.4-0.1-2.3,0.1
		c-0.3,0.1-0.9,0.4-1.2,0.6c-0.6,0.3-1.4,0.7-2.3,0.9c-2.3,0.9-4.9,1.3-7.8,1.8c-5.8,0.9-11.5,1.3-17.6,2.1c-2.9,0.3-5.5,0.7-8.4,1.2
		c-1.2,0.1-2.6,0.7-3.5,0.7c-1.7,0-4-0.6-6-0.6c-6.3-0.1-12.1,1-17.9,1.9c-2.9,0.4-6,0.7-8.9,0.9c-1.2,0-2.9,0-4-0.1
		c-0.9-0.1-0.9-0.4-1.4-0.6c-1.2-0.3-2.9-0.3-4-0.3c-3.5,0-6,0.7-9.2,1.3c-2,0.3-4.3,0.3-6.3,0.3c-2.3,0-4.6,0-6.9,0.1
		c-9.5,0.1-18.7,0.3-28.2,0.4c-0.9,0-2.6-0.1-3.5,0c-1.7,0.3-0.6,0-1.2,0.9c-0.3,0.7,0,0.3-1.2,0.6c-0.9,0.3-2.3,0.3-3.2,0.6
		c-1.7,0.3-4,0.7-6,0.6c-2-0.1-4.3-0.7-6.3-1c-3.7-0.3-7.8-0.3-11.5-0.3c-1.7,0-3.7,0-5.5,0.1c-1.7,0-4.9-0.3-6.3,0
		c-1.2,0.3-2.6,1-3.5,1.5c-2,0.9-2.6,1.3-5.2,1.3c-8.9,0.1-17.9,0.3-26.8,0.1c-8.9-0.1-17.6,0.4-26.5,0.6c-8.6,0-16.7,1.2-25.3,0.9
		c-8.4-0.3-16.4-1.9-24.8-1.3c-2,0.1-3.7,0.3-5.5,0.6c-0.9,0.1-3.2,0.4-3.5,0.7s0,0.9,0,1.2c0,4.3,0,8.5,0,12.8c0,0.4-0.6,2.1,0,2.4
		c0.3,0.1,2,0,2.3,0c4.3,0,8.6,0,13,0c7.8,0,15.6,0,23.3,0c11.2,0,22.2,0,33.4,0c14.4,0,28.5,0,42.9,0c17.3,0,34.6,0,51.8,0
		c19.9,0,39.7,0,59.9,0c22.5,0,44.9,0,67.4,0c24.8,0,49.5,0,74.3,0c27.1,0,54.1,0,81.2,0c28.8,0,57.6,0,86.7,0c30.5,0,61.1,0,91.9,0
		c32.3,0,64.2,0,96.5,0c33.7,0,67.1,0,100.8,0c34.6,0,69.1,0,103.7,0c35.4,0,71.1,0,106.6,0c36.3,0,72.6,0,108.9,0
		c36.9,0,74,0,110.9,0c37.2,0,74.3,0,111.5,0s74.6,0,111.8,0c37.4,0,74.6,0,112,0c36.9,0,73.7,0,110.6,0c36.6,0,72.9,0,109.4,0
		c35.7,0,71.4,0,107.4,0c35.1,0,70.3,0,105.1,0c33.7,0,67.7,0,101.4,0c32.5,0,65.1,0,97.6,0c31.1,0,62.2,0,93.3,0c29.7,0,59,0,88.7,0
		c27.6,0,55,0,82.7,0c25.6,0,51,0,76.6,0c23.3,0,46.4,0,69.7,0c20.7,0,41.8,0,62.5,0c18.1,0,36.3,0,54.1,0c15.3,0,30.5,0,45.8,0
		c12.1,0,24.2,0,36.6,0c8.9,0,17.9,0,26.8,0c5.5,0,10.9,0,16.1,0C2877,600,2878.8,600,2880.5,600z"/>
</svg>
